<svg xmlns="http://www.w3.org/2000/svg" width="256" height="256"><path fill="#1976D2" fill-opacity=".31" fill-rule="evenodd" d="M0 128.004v128.004l128.25-.254 128.25-.254.254-127.75L257.008 0H0v128.004m.485.496c0 70.4.119 99.053.265 63.672.146-35.38.146-92.98 0-128C.604 29.153.485 58.1.485 128.5"/><path fill="#1976D2" fill-opacity=".341" fill-rule="evenodd" d="M0 128.004v128.004l128.25-.254 128.25-.254.254-127.75L257.008 0H0v128.004m.485.496c0 70.4.119 99.053.265 63.672.146-35.38.146-92.98 0-128C.604 29.153.485 58.1.485 128.5M117 35.008c0 .894 5.48 2.992 7.816 2.992 2.414 0 .401-1.363-3.882-2.628-2.164-.638-3.934-.802-3.934-.364m8.25 16.681c.963.252 2.537.252 3.5 0 .963-.251.175-.457-1.75-.457s-2.713.206-1.75.457m8.75 58.717c0 .839-.706 1.231-1.75.971-1.366-.34-2.27.941-4.122 5.844-2.217 5.87-5.147 10.812-12.915 21.779-4.954 6.994-10.646 23.318-11.507 33l-.489 5.5 1.28-4.084c2.256-7.2 4.609-10.727 13.165-19.738 9.398-9.897 12.326-14.918 15.283-26.21 1.644-6.275 1.798-8.08.797-9.317-.991-1.225-.989-1.383.008-.784.927.557 1.25-.427 1.25-3.808 0-2.507-.225-4.559-.5-4.559s-.5.633-.5 1.406m-25.75 1.814c-1.237.597-2.25 1.425-2.25 1.839 0 1.148 3.781-.09 5.09-1.667 1.353-1.63.314-1.693-2.84-.172m12.773 1.124c-3.042 2.084-3.554 3.109-4.619 9.25-.659 3.798-1.51 7.806-1.892 8.906-1.139 3.286 5.555-7.49 7.563-12.174 1.18-2.754 1.447-4.326.734-4.326-.615 0-.304-.9.691-2 2.368-2.617 1.71-2.525-2.477.344m-10.148 1.156c-.069.275-.181.913-.25 1.417s-.535 1.291-1.035 1.75c-.536.49-.59.279-.132-.513.551-.953.252-1.245-1.024-.999-1.202.231-1.929 1.451-2.181 3.66-.208 1.822-1.262 5.372-2.341 7.89-1.079 2.518-1.726 4.814-1.437 5.103.289.289.525-.05.525-.753 0-.917.981-1.094 3.471-.626 3.064.574 3.526.382 3.938-1.639.833-4.078 1.662-15.79 1.119-15.79a.705.705 0 0 0-.653.5m-8.715 1.715c-.088.943-1.173 2.205-2.41 2.805-2.031.984-2.079.952-.5-.325 2.025-1.638 2.286-2.806.546-2.445-.662.138-3.632 4.3-6.599 9.25C81.484 145.04 79 152.116 79 165.94c0 3.615-.41 8.003-.911 9.751-.711 2.477-.623 3.068.395 2.677.718-.276 2.037-3.409 2.929-6.962.893-3.553 5.386-14.211 9.985-23.683 10.175-20.957 11.872-25.42 11.337-29.814-.228-1.875-.487-2.637-.575-1.694m16.712.449c-1.244 1.508-1.162 1.552.878.465 2.327-1.24 2.9-2.129 1.372-2.129-.482 0-1.495.749-2.25 1.664m-15.622 22.589c-6.01 2.307-5.989 2.228-4.191 15.456 1.85 13.623 1.878 13.651 4.52 4.791 2.918-9.78 5.737-21.53 5.267-21.952-.19-.171-2.708.596-5.596 1.705m20.815 17.18-3.284 3.388 1.831 3.099c2.433 4.119 3.907 3.392 3.537-1.745-.166-2.296-.068-4.175.217-4.175.286 0 2.228 1.008 4.316 2.24l3.795 2.239-2.192-3.078c-3.957-5.557-4.593-5.71-8.22-1.968m23.435.771c-3.873 3.934-8.306 6.721-20.531 12.909-9.796 4.958-15.134 9.588-16.331 14.163-.411 1.574.292 1.238 3.166-1.508 4.872-4.655 5.977-5.156 17.823-8.08 9.596-2.369 22.224-7.712 27.144-11.487l2.272-1.742-4.996-3.73c-2.747-2.051-5.119-3.694-5.271-3.651-.152.043-1.626 1.449-3.276 3.126m-34.97 12.11c-2.308 3.522-1.586 5.008 1.352 2.783 1.881-1.425 2.169-2.183 1.374-3.605-.928-1.658-1.144-1.593-2.726.822m-12.938 13.048c-.39 2.079-.938 4.377-1.219 5.107-.35.913.302 1.281 2.083 1.179 2.339-.134 2.528-.44 1.938-3.148-1.409-6.467-2.044-7.178-2.802-3.138M180 179.211c0 .3-.681 2.175-1.513 4.167-.833 1.992-1.289 3.622-1.014 3.622.792 0 3.61-7.25 3.04-7.82-.282-.282-.513-.268-.513.031m-57.5 3.295c-4.796 1.701-7.71 4.973-7.3 8.197.165 1.298.638 2.345 1.05 2.328.412-.017 3.388-.031 6.612-.031h5.861l1.466-6 1.466-6-2.578.044c-1.417.024-4.377.682-6.577 1.462M73 187.759c0 .418 1.013 1.382 2.25 2.142 2.242 1.377 2.243 1.375.345-.759-2.038-2.292-2.595-2.588-2.595-1.383M164 191c0 1.1.402 2 .893 2 1.124 0 2.173-2.601 1.371-3.402-1.203-1.204-2.264-.547-2.264 1.402m-4.908 2.25c-.681 1.817-.466 2.314 1.119 2.581 2.53.427 2.833.054 2.133-2.625-.742-2.838-2.179-2.818-3.252.044m-7.592 1.278-4 1.318 4.143.077c2.814.052 4.328-.404 4.719-1.423.665-1.734.482-1.733-4.862.028m-52.687 5.155c.721.289 1.584.253 1.916-.079.332-.332-.258-.568-1.312-.525-1.165.048-1.402.285-.604.604m15.467 1.053c2.629.207 6.679.204 9-.005 2.321-.21.17-.379-4.78-.376-4.95.003-6.849.175-4.22.381"/><path fill="#1976D2" fill-opacity=".543" fill-rule="evenodd" d="M0 128v128h48.5c40.528 0 48.5-.226 48.5-1.378 0-2.424 3.087-4.044 7.354-3.859 2.28.098 6.055-.543 8.388-1.425 7.048-2.664 16.723-.099 17.997 4.771.484 1.852 2.259 1.899 63.13 1.648l62.631-.257.254-127.75L257.008 0H0v128m.485.5c0 70.4.119 99.053.265 63.672.146-35.38.146-92.98 0-128C.604 29.153.485 58.1.485 128.5M108 34.278c0 .312 1.688 1.115 3.75 1.785 2.063.669 5.888 2.239 8.5 3.487 3.68 1.758 4.75 1.952 4.75.86 0-1.937.813-1.779 5.961 1.164 4.108 2.348 4.306 2.378 2.501.384-4.097-4.527-10.064-7.082-17.927-7.677-4.144-.313-7.535-.315-7.535-.003M128 35c1.375.44 3.625.848 5 .906 4.939.208 10.431 2.344 12.942 5.033l2.558 2.739-.343-4.247c-.417-5.158-1.135-5.437-13.657-5.318-6.028.058-8.174.351-6.5.887m-25.537 3.52c3.215 1.936 6.415 4.298 7.11 5.248.695.951 1.589 1.403 1.988 1.005C113.309 43.024 103.126 35 99.159 35c-2.096 0-1.517.617 3.304 3.52m50.173-2.026c.316.822.976 1.246 1.469.941 1.412-.872 1.044-2.435-.574-2.435-.892 0-1.243.587-.895 1.494M122.25 50.706c-1.237.238-2.25.852-2.25 1.364 0 1.042 6.905 1.053 11.5.017l3-.676-4-.694c-4.163-.723-4.551-.724-8.25-.011m-9.437 6.977c.721.289 1.584.253 1.916-.079.332-.332-.258-.568-1.312-.525-1.165.048-1.402.285-.604.604M104 80.059c0 .582.45.781 1 .441s1-.816 1-1.059-.45-.441-1-.441-1 .477-1 1.059m15.854-.12c-.224.672-1.971 1.574-3.881 2.004-3.467.78-3.469.783-.973 1.819 2.053.852 2.209 1.156.87 1.699-1.375.558-1.476 1.316-.644 4.85 1.583 6.73 1.137 31.265-.693 38.081-.87 3.241-1.378 6.096-1.13 6.345.591.59 4.51-5.656 8.644-13.774 4.478-8.793 5.136-18.915 2.013-30.963-2.398-9.253-3.554-12.017-4.206-10.061m7.217 1.417c-.039.47.649 3.62 1.528 7 1.106 4.245 1.484 9.083 1.225 15.656-.336 8.519-.769 10.34-4.149 17.456-2.075 4.37-5.239 9.765-7.032 11.989-5.142 6.378-7.24 10.336-11.152 21.045-3.813 10.434-6.168 26.653-3.644 25.093.634-.392 1.157-2.149 1.163-3.904.017-5.772 4.56-13.408 13.508-22.71 9.484-9.858 12.297-14.913 15.627-28.081 3.296-13.034 1.866-24.431-5.005-39.9-1.099-2.475-2.031-4.115-2.069-3.644m-25.404 8.539c-3.797 14.738-11.968 28.123-29.939 49.044-4.813 5.603-10.254 14.651-11.163 18.561-.655 2.822-.595 2.9 1.014 1.319.941-.924 5.133-6.377 9.316-12.117 4.183-5.74 11.357-15.334 15.942-21.319 12.548-16.38 21.721-37.253 18.005-40.97-1.203-1.202-1.654-.423-3.175 5.482M109.746 87c-1.049 2.69-3.616 20.315-4.105 28.187-.379 6.108-1.329 9.681-4.626 17.397l-4.149 9.711 1.567 9.892c3.064 19.344 1.456 34.078-4.352 39.886l-2.744 2.744 2.956.592c1.626.325 5.361.591 8.298.591h5.342l-1.889-3.25c-3.258-5.606-5.336-14.597-4.779-20.678.281-3.065 1.895-10.072 3.586-15.572 5.188-16.863 7.451-30.458 7.492-45 .036-12.969-1.487-27.343-2.597-24.5M156 89.946c0 1.181 5.574 10.732 11.845 20.295 2.618 3.992 5.993 9.397 7.5 12.009 1.506 2.612 2.964 4.75 3.239 4.75.436 0-2.334-5.243-6.077-11.5-.658-1.1-2.674-4.7-4.481-8-8.764-16.003-10.264-18.5-11.112-18.5-.503 0-.914.426-.914.946M96.537 92.35c-1.584 1.158-1.617 1.405-.26 1.926.92.353 1.806-.049 2.164-.982.843-2.198.227-2.503-1.904-.944M144 92c-.901.582-1.025.975-.309.985.655.008 1.469-.435 1.809-.985.767-1.242.421-1.242-1.5 0m2.099 1.25c-1.377 2.242-1.375 2.243.759.345 2.292-2.038 2.588-2.595 1.383-2.595-.418 0-1.382 1.013-2.142 2.25M95.02 98.476c-.789.95-.865 1.524-.201 1.524 1.208 0 2.617-1.897 1.924-2.591-.252-.251-1.027.229-1.723 1.067m61.639 2.31c.087.2-.253 1.793-.756 3.539-.779 2.704-.377 4.234 2.705 10.314 3.147 6.209 3.653 8.196 3.875 15.235.224 7.071.604 8.551 3.002 11.695 3.613 4.737 2.315 6.345-3.557 4.407-3.833-1.265-4.205-1.223-5.151.58-.561 1.069-4.045 4.899-7.743 8.51-5.32 5.196-9.491 7.994-19.989 13.411-14.01 7.229-19.045 11.808-19.045 17.321 0 2.402.088 2.367 2.289-.9 3.103-4.608 8.441-7.279 19.59-9.801 21.477-4.859 37.382-16.379 40.494-29.331.367-1.527-.084-5.687-1.022-9.422-1.371-5.456-1.828-6.287-2.483-4.515-1.138 3.075-2.202 2.697-1.579-.561.287-1.503-.156-4.043-.984-5.646-1.366-2.641-1.358-2.856.094-2.299 1.015.389 1.601.083 1.601-.836 0-2.197-7.432-17.703-9.598-20.027-1.046-1.122-1.831-1.875-1.743-1.674m-13.314 2.043c.91 1.006 1.655 2.356 1.655 3 0 .644.759 1.171 1.687 1.171 1.319 0 1.06-.655-1.187-3-3.086-3.221-4.905-4.21-2.155-1.171m-61.57 6.671c-3.965 6.119-10.792 19.567-15.483 30.5l-1.501 3.5 2.693-2.5c4.103-3.808 19.38-23.505 22.343-28.806l2.623-4.693-2.975 2.263c-3.737 2.842-8.06 8.546-14.045 18.531-2.57 4.287-4.875 7.594-5.121 7.347-.246-.246 1.532-3.754 3.952-7.795 7.594-12.683 12.878-22.932 12.456-24.162-.223-.652-2.447 1.965-4.942 5.815m14.866 7.763L85.307 139c-5.462 10.474-5.477 10.53-6.29 22.5-.817 12.043-2.313 18.007-6.022 24.008-2.711 4.387-2.53 5.294 1.255 6.288 3.886 1.02 3.901.986 6.672-14.796 1.65-9.393 2.794-12.45 10.861-29 10.714-21.982 12.345-27.093 11.399-35.737l-.682-6.237-5.859 11.237m69.359-5.88c0 .394.643 1.96 1.429 3.48s2.547 7.01 3.914 12.2c1.366 5.19 3.976 12.587 5.8 16.437 2.983 6.296 3.319 7.906 3.337 16 .019 8.375-.218 9.44-3.414 15.334-1.889 3.483-5.289 7.854-7.557 9.712-5.473 4.485-15.391 8.987-24.009 10.898l-7 1.552 14.5-.405c13.75-.383 20.734-1.595 19.617-3.402-.277-.448 1.019-3.936 2.88-7.752 4.229-8.67 4.557-7.717.456 1.326l-3.047 6.72 3.613-3.491c1.987-1.921 4.529-4.969 5.648-6.773 3.541-5.71 4.066-17.059 1.282-27.719-.342-1.31.007-1.074 1.012.684.843 1.476 1.928 5.751 2.41 9.5l.876 6.816.127-8.201c.225-14.637-2.171-21.585-14.419-41.799-7.065-11.661-7.455-12.242-7.455-11.117m-24 5.997v4.425l6.905 2.098c8.383 2.546 8.023 2.539 7.394.133-.282-1.081-.803-1.908-1.156-1.839-.354.069-1.91-.397-3.458-1.036-1.548-.638-3.513-1.161-4.367-1.161-1.047 0-1.385-.635-1.04-1.954.345-1.321-.266-2.463-1.884-3.523L142 112.954v4.426m-2.394 13.204c-1.164 3.033-.652 5.418 1.144 5.337 1.045-.047 1.247-.282.5-.583-1.197-.483-1.828-4.338-.71-4.338.297 0 2.365.931 4.597 2.07 5.767 2.942 5.701 1.907-.086-1.346-4.166-2.342-4.923-2.5-5.445-1.14m-60.436 9.829c-1.744 2.428-3.17 4.991-3.17 5.696 0 1.067 2.267-2.091 6.362-8.859 1.77-2.926-.273-.901-3.192 3.163m54.389 4.137c-1.986 3.032-1.636 3.7 1.941 3.7 1.421 0 2.346.238 2.055.528-.29.291.905 1.586 2.656 2.878 2.234 1.648 3.498 2.034 4.237 1.292 1.308-1.313-2.691-4.591-6.698-5.49-1.512-.339-2.75-1.005-2.75-1.478 0-2 2.197-1.868 7.432.448 3.063 1.354 5.56 2.149 5.551 1.767-.014-.551-5.008-3.037-12.021-5.982-.376-.158-1.457.894-2.403 2.337m-42.202 11.459-4.143 8.837 2.86 1.185c1.573.651 3.38 1.811 4.015 2.577 2.331 2.808 2.909 1.194 2.811-7.858-.157-14.579-.709-15.051-5.543-4.741M188.61 150c.388 1.375 1.048 6.325 1.467 11l.762 8.5-.222-9c-.124-5.051-.768-9.877-1.467-11-1.154-1.852-1.193-1.815-.54.5m-12.825 1.75c-.247.963-.135 4 .249 6.75l.699 5 .133-6.75c.133-6.707-.222-8.35-1.081-5m-51.767 4.732c-3.185 3.285-3.296 3.631-1.963 6.121 2.025 3.784 3.354 3.934 8.442.952l4.521-2.65-3.176-3.952c-1.747-2.174-3.463-3.953-3.813-3.953-.35 0-2.155 1.567-4.011 3.482m-5.018 5.9c0 .825.45 1.778 1 2.118.55.34 1-.057 1-.882s-.45-1.778-1-2.118c-.55-.34-1 .057-1 .882m48.595 1.513c-1.064 1.175-1.336 2.147-.71 2.534.558.345 1.524-.324 2.146-1.487 1.513-2.826.707-3.414-1.436-1.047m-56.069 6.055c-.839 1.623-1.526 3.752-1.526 4.731 0 1.419.639 1.142 3.141-1.361 1.987-1.987 2.918-3.725 2.532-4.731-.927-2.413-2.455-1.912-4.147 1.361m44.645 3.092c-2.723 1.656-3.072 2.274-2.204 3.896 1.702 3.18 3.367 7.512 3.194 8.312-.221 1.027 1.035.916 2.839-.25 1.302-.841 1.283-.971-.143-.985-1.912-.018-2.857-2.015-2.857-6.038 0-4.189 1.947-4.754 4.787-1.388l2.457 2.911-2.296-4-2.418-4.213c-.067-.117-1.579.673-3.359 1.755m-72.695 1.033c-.362 1.142-.393 2.342-.067 2.667.325.325.591-.207.591-1.182 0-1.234.5-1.582 1.641-1.144 1.373.527 1.435.38.378-.893-1.624-1.957-1.755-1.929-2.543.552m56.274 5.087c-2.962 1.082-3.053 1.307-1.75 4.338.767 1.785.867 1.806.93.191.038-.995.489-1.55 1.001-1.234.512.317 1.218.111 1.569-.457 1.089-1.763 2.5-.026 2.5 3.078 0 2.658-.255 2.896-2.5 2.333-2.207-.554-2.5-.309-2.5 2.088 0 2.065.379 2.57 1.582 2.108.87-.334 2.445-.607 3.5-.607 1.694 0 1.918-.759 1.918-6.5 0-7.098-.428-7.464-6.25-5.338m-14.44 1.885c-7.631 1.508-12.271 6.35-10.732 11.199.527 1.66 1.221 1.884 4.276 1.379 2.005-.332 5.274-.608 7.264-.614 3.403-.01 3.655-.234 4.23-3.761.337-2.062.899-4.988 1.249-6.5.703-3.038.605-3.065-6.287-1.703m9.922 2.953c0 1.925.206 2.713.457 1.75.252-.963.252-2.537 0-3.5-.251-.963-.457-.175-.457 1.75M90.5 185c.995 1.1 2.035 2 2.31 2 .275 0-.315-.9-1.31-2-.995-1.1-2.035-2-2.31-2-.275 0 .315.9 1.31 2m87.773 5.594c-4.077 4.25-4.261 5.106-.812 3.783 1.245-.478 6.518-8.704 5.309-8.283-.148.052-2.172 2.077-4.497 4.5M78 196.813c4.898 2.967 41.125 5.502 63.5 4.444l16-.757-29-.637c-25.6-.562-43.776-1.811-50-3.436-1.523-.398-1.643-.306-.5.386m86.269 2.88c.973.254 2.323.237 3-.037.677-.274-.119-.481-1.769-.461-1.65.02-2.204.244-1.231.498"/><path fill="#1976D2" fill-opacity=".415" fill-rule="evenodd" d="M0 128v128h34c26.098 0 34-.284 34-1.221 0-.671-.536-3.525-1.19-6.341-1.509-6.487-3.848-7.894-13.81-8.304-4.125-.17-9.699-.72-12.386-1.222-2.688-.501-6.931-.912-9.43-.912-2.498 0-7.499-.877-11.113-1.948-3.614-1.072-8.146-2.359-10.071-2.86-3.037-.79-3.236-1.015-1.5-1.699 1.1-.434 3.429-1.844 5.175-3.134 4.07-3.008 12.971-4.313 29.575-4.339 12.585-.02 15.742.833 9.604 2.593-3.959 1.135-6.018 4.021-3.854 5.4 2.194 1.399 11.591 4.035 17.963 5.039 22.818 3.594 67.99 6.23 94.037 5.486 11.275-.322 22.075-.208 24 .253l3.5.838-3.534 1.192c-3.68 1.241-3.658 1.179-3.122 8.941l.156 2.262 37.25-.262 37.25-.262.254-127.75L257.008 0H0v128m.485.5c0 70.4.119 99.053.265 63.672.146-35.38.146-92.98 0-128C.604 29.153.485 58.1.485 128.5M126.882 23.25c-.066 2.337-.066 4.587 0 5 .348 2.205-1.773.206-3.713-3.5-1.949-3.724-2.153-3.879-1.649-1.25.316 1.65.809 3.788 1.095 4.75.417 1.405-.134 1.774-2.798 1.87-3.283.119-3.274.131.852 1.125 2.586.623 7.144.686 12 .165 4.811-.516 6.596-.973 4.628-1.185-2.966-.319-3.132-.529-2.25-2.85 1.487-3.911 1.041-5.258-.538-1.625-1.862 4.285-3.275 4.11-4.042-.5-.874-5.263-1.259-6.25-2.436-6.25-.567 0-1.084 1.913-1.149 4.25m-17.284 10.488-3.902.401 7.883 3.426c4.335 1.885 9.764 4.779 12.065 6.431 3.064 2.2 5.309 3.004 8.391 3.004 4.131 0 4.182-.042 2.748-2.25-.803-1.237-3.537-3.809-6.075-5.713-2.538-1.905-4.523-3.548-4.411-3.652.491-.453 14.97 2.688 16.73 3.63 1.074.574 2.67 2.433 3.548 4.13 2.15 4.157 3.342 2.483 2.708-3.804l-.52-5.159-11.557-.722c-8.142-.508-12.103-.381-13.405.432-1.293.808-2.42.847-3.758.131-1.903-1.019-3.021-1.049-10.445-.285m41.402.647c0 .212.64 1.9 1.422 3.75l1.423 3.365 1.085-2.834c.596-1.559.83-3.246.518-3.75-.539-.872-4.448-1.339-4.448-.531m-50.924 3.507c3.066 1.63 6.666 4.113 8 5.519 2.491 2.625 4.924 3.391 4.924 1.55 0-.571-1.717-2.879-3.815-5.129-3.397-3.641-4.413-4.135-9.25-4.497l-5.435-.406 5.576 2.963m-2.357 5.142c2.067 2.768 3.914 4.568 4.103 3.999.41-1.228-5.575-9.033-6.925-9.033-.515 0 .755 2.265 2.822 5.034m16.307-.62c2.525 2.563 5.529 4.587 7.162 4.827 3.4.499 3.538-.227.562-2.954-2.176-1.993-9.942-6.287-11.372-6.287-.386 0 1.255 1.986 3.648 4.414m26.155.65c2.213 2.236 4.244 3.845 4.513 3.576 1.141-1.141-1.054-4.775-3.715-6.151-4.79-2.477-5.03-1.699-.798 2.575m-37.235.311c1.896 1.994 3.886 3.625 4.424 3.625 1.301 0-3.33-4.904-5.87-6.217-1.207-.624-.634.403 1.446 2.592m14.054.003c0 .207.787.995 1.75 1.75 1.586 1.243 1.621 1.208.378-.378-1.307-1.666-2.128-2.195-2.128-1.372M118.5 51c-1.1.473-4.475.957-7.5 1.077-4.76.188-4.289.328 3.5 1.037 14.728 1.34 37.271-.754 24-2.23-8.497-.945-17.655-.892-20 .116m-12 5.754c-1.511.43-.9.853 2.5 1.731 4.089 1.055 4.481 1.421 4.29 3.998-.281 3.787-1.767 5.196-3.748 3.552-1.981-1.644-2.014-.365-.042 1.608 1.94 1.94 1.932 3.737-.012 2.991-1.884-.723-1.207 2.474 2.117 10.001 5.495 12.441 5.714 40.929.412 53.527-.849 2.015-.923 1.855-.541-1.162 1.963-15.51 2.103-26.782.493-39.775-1.089-8.784-2.969-13.528-2.969-7.49 0 1.724-.696 6.426-1.548 10.45-.851 4.023-1.894 12.04-2.317 17.815-.612 8.342-1.324 11.63-3.467 16-2.821 5.754-2.732 5.088.531-3.967 1.635-4.535 1.852-6.81 1.272-13.357l-.698-7.892-7.391 13.858c-15.883 29.782-15.68 29.263-16.511 42.25-.784 12.246-2.08 17.196-6.457 24.665-3.001 5.12-2.575 6.231 2.552 6.657 3.416.284 3.445.251 4.585-5.214.631-3.025 1.645-8.652 2.253-12.504.806-5.11 3.009-10.991 8.146-21.75 3.872-8.11 7.158-14.746 7.302-14.746.144 0 .101 2.024-.095 4.497-.204 2.563-.774 4.24-1.325 3.899-.532-.328-1.225.391-1.541 1.599-.316 1.208-2.329 5.825-4.474 10.26-2.701 5.587-3.579 8.383-2.858 9.104.573.573 1.027 1.514 1.009 2.091-.017.578-.692.176-1.5-.891-.807-1.068-1.537-1.518-1.62-1-.378 2.336-.607 3.113-1.692 5.756-1.672 4.071-1.567 4.412 2.94 9.532 4.897 5.563 6.975 5.889 8.291 1.299.902-3.145.718-3.569-2.963-6.826-2.158-1.91-2.811-2.763-1.451-1.896 1.359.867 3.384 1.574 4.5 1.572 1.65-.003 1.444-.359-1.114-1.919-4.234-2.582-5.326-4.395-1.851-3.074 5.777 2.196 5.802 2.139 5.819-13.003.01-9.167.133-9.929.968-6 .526 2.475.951 9.9.946 16.5-.012 13.555-1.473 18.835-6.349 22.937-3.441 2.896-3.091 3.075 8.01 4.108 6.064.564 7.294.441 6.806-.678-5.598-12.853-6.077-14.568-5.969-21.367.061-3.85.527-8.35 1.035-10 .648-2.104.781-.13.446 6.611-.325 6.536-.117 9.835.651 10.309.755.467 1.129-.442 1.129-2.746 0-7.978 2.963-13.526 12.866-24.088 6.909-7.37 10.32-11.942 12.664-16.977 1.947-4.18 3.442-6.343 3.8-5.5.325.765.343.186.04-1.287-.585-2.847.411-7.374 1.405-6.381.712.713 3.228-4.996 3.219-7.306-.004-.899-.635-2.841-1.404-4.315-1.199-2.297-1.198-2.756.006-3.218 1.615-.62 1.904-5.175.388-6.112-.559-.346-.761-1.042-.448-1.548.312-.505-.13-.651-.984-.324-.985.378-1.552.038-1.552-.929 0-.839-.286-2.35-.635-3.357-.554-1.602-.439-1.581.919.166.854 1.1 1.821 1.73 2.149 1.402.329-.328-.502-1.696-1.845-3.039-1.343-1.344-3.865-6.024-5.603-10.402-1.738-4.377-3.604-8.496-4.147-9.152-.543-.656-1.833-3.356-2.866-6-1.033-2.644-1.899-4.002-1.925-3.017-.026.984.842 3.532 1.928 5.662 2.784 5.455 7.072 22.153 6.374 24.82-.759 2.903-3.099 2.886-3.1-.022-.003-3.531-3.236-14.448-7.033-23.75-1.909-4.675-3.596-10.525-3.748-13-.269-4.345-.393-4.505-3.623-4.657-1.84-.086-4.245.099-5.345.411m15.5.829c0 2.375 5.709 16.165 9.267 22.384 1.72 3.006 6.67 9.28 10.999 13.941 14.87 16.011 20.677 27.484 19.394 38.317-.908 7.662-4.296 13.55-12.589 21.875-6.517 6.542-9.398 8.527-20.69 14.257-13.561 6.882-17.292 10.195-18.899 16.784-.757 3.102.96 4.678 2.363 2.171.749-1.338.944-.863.86 2.095-.123 4.368 1.661 6.196 7.032 7.204 4.212.79 10.263-2.135 10.263-4.961 0-1.405.324-1.626 1.253-.855 1.758 1.459 4.414-.68 5.41-4.357.794-2.929.798-2.926 1.317 1.062.437 3.366.916 4.041 3.02 4.259 3.889.403 4.65-.753 5.317-8.082l.621-6.822-3.219.7c-1.77.385-4.344 1.167-5.719 1.739-3.575 1.485-4.188 1.487-7.2.021-1.486-.723-3.736-1.351-5-1.394-1.265-.043 1.895-1.146 7.023-2.449 18.328-4.661 33.225-14.085 37.803-23.916 2.875-6.175 2.921-8.717.347-19.453-1.107-4.618-1.838-8.572-1.624-8.786.215-.214 1.141 2.601 2.059 6.257.918 3.655 2.737 8.753 4.043 11.328 3.853 7.605 5.86 15.828 5.206 21.342-.69 5.831-4.255 13.976-8.112 18.537-6.1 7.212-19.289 13.412-31.465 14.789-3.381.383-5.936.907-5.677 1.166.669.669 28.427.333 32.456-.394 2.264-.408 5.28-2.484 9.25-6.37 7.292-7.134 7.686-6.75.677.661-5.016 5.303-5.101 5.486-2.25 4.811 1.63-.386 3.262-.982 3.626-1.323 2.229-2.091 7.259-14.404 8.359-20.463 1.097-6.049 1.322-6.538 1.452-3.158.14 3.645.24 3.784 1.124 1.571 2.224-5.565 2.227-13.646.008-20.952-1.187-3.906-2.652-6.993-3.256-6.86-.605.132-1.326-.384-1.604-1.148-.309-.851-.067-1.119.625-.691.623.385 1.116.111 1.099-.611-.045-1.862-2.998-7.569-15.81-30.553-6.335-11.366-10.97-20.753-10.567-21.405.42-.679.282-.891-.333-.511-.577.357-1.316-.047-1.643-.898-.383-.999-.189-1.296.55-.839.629.388.911.299.626-.198-.284-.498-1.315-3.493-2.291-6.655-.976-3.162-2.163-5.75-2.638-5.75-1.359 0-1.025 1.763 1.137 6 2.529 4.957 2.506 6.187-.058 3.108-1.096-1.315-2.194-2.19-2.44-1.943-.694.694 1.378 7.993 3.219 11.335 1.539 2.796 1.538 2.908-.012 1.647-.915-.745-2.832-3.743-4.261-6.663-3.008-6.148-4.801-7.942-8.922-8.925-2.834-.676-2.714-.435 2.538 5.116 10.32 10.905 10.314 12.861-.009 2.825-10.999-10.694-16.763-18.466-19.652-26.499-1.704-4.739-4.403-6.834-4.403-3.418m7.846 3.347c1.445 2.711 2.783 4.774 2.972 4.585.189-.189-.177-1.317-.814-2.507-2.383-4.453 2.153-7.189 4.825-2.911 1.731 2.773 2.489 1.869 1.224-1.458-.897-2.358-1.527-2.639-5.92-2.639h-4.916l2.629 4.93M144 66.5c1.815 3.3 3.756 6.45 4.312 7 .557.55-.46-1.7-2.26-5-1.799-3.3-3.74-6.45-4.312-7-.572-.55.445 1.7 2.26 5m-39.957 0c-.947 17.57-3.529 28.559-9.494 40.403-3.243 6.438-12.123 18.896-18.275 25.636-4.122 4.515-2.371 2.019 5.522-7.874C93.864 109.537 99.797 95.057 101.325 77c.468-5.535.396-5.981-.489-3-3.949 13.303-8.202 24.518-11.308 29.817-5.076 8.662-5.534 7.726-.65-1.328 4.364-8.091 7.185-16.301 7.017-20.421-.086-2.107-.326-1.851-1.337 1.421-.794 2.571-1.441 3.459-1.821 2.5-.329-.832-.532-.361-.461 1.066.172 3.43-2.249 9.08-3.547 8.278-.596-.369-.739-.158-.335.496.387.625-1.097 3.788-3.297 7.028-8.716 12.835-20.965 37.444-21.696 43.59-.2 1.679-1.239 5.523-2.309 8.542-3.458 9.752-1.887 8.498 10.007-7.989 3.77-5.225 10.494-14.205 14.944-19.956 9.086-11.743 14.187-20.337 17.801-29.988 2.062-5.506 2.432-8.158 2.312-16.556-.078-5.5-.55-11.575-1.047-13.5l-.904-3.5-.162 3M135 71.804c0 .481 1.154 1.401 2.564 2.043 1.464.667 2.298.738 1.944.166-.907-1.468-4.508-3.232-4.508-2.209m7 .579c0 1.073 2.975 6.617 3.551 6.617.275 0-.243-1.463-1.152-3.25-1.857-3.65-2.399-4.411-2.399-3.367M150 77c.589 1.1 1.295 2 1.57 2 .275 0 .019-.9-.57-2s-1.295-2-1.57-2c-.275 0-.019.9.57 2m-9 27.051c0 4.819.16 5.118 3.468 6.5 6.315 2.639 11.045 1.418 6.763-1.744-.974-.719-3.261-3.219-5.084-5.557-1.823-2.338-3.727-4.25-4.231-4.25s-.916 2.273-.916 5.051m17.648-4.29c-.27.437 1.049 3.236 2.931 6.22 1.881 2.984 3.421 5.755 3.421 6.158 0 1.554 2.083 6.112 2.57 5.624.283-.283-.605-3.045-1.973-6.139-1.368-3.093-2.275-5.624-2.016-5.624.713 0-2.431-5.789-3.505-6.453-.516-.319-1.159-.222-1.428.214M127 103.5c0 1.556.567 2.5 1.5 2.5s1.5-.944 1.5-2.5-.567-2.5-1.5-2.5-1.5.944-1.5 2.5m-.45 5.231c-.377.981-.157 1.9.506 2.121.83.277.777.633-.184 1.227-.999.617-1.061 1.132-.238 1.955.823.823 1.41.277 2.23-2.073 1.1-3.155.802-4.961-.816-4.961-.459 0-1.133.779-1.498 1.731M167 111c.589 1.1 1.295 2 1.57 2 .275 0 .019-.9-.57-2s-1.295-2-1.57-2c-.275 0-.019.9.57 2m-26.161 7.983-.339 5.983 5.474 1.134c3.011.624 6.123 1.384 6.914 1.687.945.363 1.183.137.692-.657-.544-.881-.045-1.034 1.836-.562 1.421.357 2.577.488 2.569.29-.009-.197-.62-2.38-1.358-4.851-1.288-4.307-1.608-4.585-7.735-6.723-3.516-1.227-6.69-2.243-7.053-2.257-.364-.015-.814 2.665-1 5.956m30.235-1.483c1.235 2.2 2.675 4.45 3.2 5 1.498 1.569-1.927-4.766-3.784-7-.914-1.1-.651-.2.584 2m-35.074-1c0 .825.436 1.5.969 1.5.532 0 .709-.675.393-1.5-.317-.825-.753-1.5-.969-1.5-.216 0-.393.675-.393 1.5m-13.017 3.534c-1.965 3.852-1.913 6.659.101 5.414.982-.607 3.916-7.029 3.916-8.57 0-2.197-2.147-.51-4.017 3.156m45.096.549c.048 1.165.285 1.402.604.605.289-.722.253-1.585-.079-1.917-.332-.332-.568.258-.525 1.312m8.432 5.794c.946 1.443 1.908 2.623 2.139 2.623.724 0-1.605-3.854-2.759-4.567-.604-.374-.325.501.62 1.944m-57.928 2.266c-.346.904-.405 1.868-.131 2.143.639.638 3.548-1.747 3.548-2.908 0-1.553-2.765-.934-3.417.765m20.388 1.935c-1.393 3.663-1.197 6.422.458 6.422.785 0 2.17.742 3.076 1.648.907.907 3.527 2.01 5.822 2.452 3.577.689 4.425.506 5.938-1.278 1.351-1.592 1.498-2.403.628-3.451-.626-.754-1.645-1.372-2.265-1.374-.621-.001-3.729-1.57-6.907-3.487l-5.78-3.485-.97 2.553m-58.84 7.432c-4.039 5.536-5.018 7.593-4.533 9.525.639 2.544 2.396 3.43 2.41 1.215.004-.687 1.768-4.849 3.919-9.248 2.151-4.398 3.786-8.122 3.633-8.275-.152-.153-2.596 2.9-5.429 6.783m100.433-4.717c.376.986.935 1.541 1.243 1.233.308-.307.001-1.114-.683-1.793-.988-.98-1.102-.865-.56.56m-65.926 1.207c-.316.825-.194 1.5.271 1.5s1.406-.675 2.091-1.5c1.013-1.221.963-1.5-.271-1.5-.833 0-1.774.675-2.091 1.5m-5.559 8.087c-.722 3.252-2.142 8.594-3.155 11.87-2.813 9.092-1.547 7.744 2.024-2.154 1.746-4.842 3.833-9.815 4.637-11.053 1.265-1.948 1.268-2.25.021-2.25-.791 0-1.614-.523-1.827-1.163-.213-.64-.978 1.498-1.7 4.75m-39.207-2.837c-1.243 1.586-1.208 1.621.378.378.963-.755 1.75-1.543 1.75-1.75 0-.823-.821-.294-2.128 1.372m63.242 4.539-1.987 3.137 5.061 2.768c2.783 1.522 5.639 3.248 6.348 3.836.972.806 1.955.192 4.015-2.508 1.5-1.967 2.553-3.716 2.338-3.886-.214-.171-3.404-1.699-7.089-3.397l-6.7-3.087-1.986 3.137m7.886-2.396c0 .491.712 1.166 1.582 1.5 2.446.939 2.769.735 1.418-.893-1.38-1.662-3-1.99-3-.607m34.061 10.423c-.656 1.988-3.166 5.809-5.578 8.492l-4.385 4.876 4.497 3.17 4.497 3.17 1.499-3.587c1.945-4.654 2.964-15.623 1.667-17.941-.873-1.56-1.16-1.322-2.197 1.82M133 150.714c.825.306 2.4.97 3.5 1.476 1.968.906 1.969.895.059-.635-1.068-.855-2.643-1.519-3.5-1.476-1.347.068-1.355.155-.059.635m-64.378 5.281C67.18 158.174 66 160.298 66 160.714c0 1.463 5.335 11.284 5.85 10.769.286-.286 1.109-2.199 1.828-4.252 1.033-2.948 1.064-4.842.145-9.027-.639-2.912-1.481-5.492-1.87-5.733-.39-.241-1.889 1.345-3.331 3.524m54.294.788c-6.148 6.66-7.005 8.375-5.33 10.665 1.116 1.527 1.618 1.628 2.883.578.842-.699 1.531-1.977 1.531-2.84 0-1.307.219-1.268 1.317.233 1.253 1.713 1.568 1.673 6.5-.826 2.851-1.445 5.171-3.182 5.156-3.86-.024-1.07-6.448-8.733-7.321-8.733-.176 0-2.308 2.153-4.736 4.783m65.336-1.283c.011 2.2.216 2.982.455 1.738.239-1.244.23-3.044-.02-4s-.446.062-.435 2.262M111 170.249c-2.5 5.584-1.05 7.015 3.047 3.009 2.679-2.619 2.968-3.362 2.006-5.159-1.669-3.118-2.936-2.579-5.053 2.15m53-2.797c0 .249 2.137 1.863 4.75 3.588l4.75 3.136-3.735-3.588c-3.287-3.157-5.765-4.505-5.765-3.136m-101.921 3.131c.048 1.165.285 1.402.604.605.289-.722.253-1.585-.079-1.917-.332-.332-.568.258-.525 1.312m93.592 2.03c-1.556.844-2.634 2.063-2.396 2.71.239.647 1.21 3.54 2.16 6.427.949 2.887 1.966 5.25 2.259 5.25 1.436 0 8.304-4.503 8.287-5.434-.027-1.505-5.828-10.574-6.733-10.526-.411.022-2.021.73-3.577 1.573m-5.421 3.12c-.687.239-1.25 2.019-1.25 3.957 0 2.803.324 3.4 1.582 2.917.87-.334 1.77-.607 2-.607.707 0 .432-4.433-.347-5.6-.404-.605-1.297-.905-1.985-.667M65.141 179c0 .825.386 2.4.859 3.5.542 1.261.859 1.445.859.5 0-.825-.386-2.4-.859-3.5-.542-1.261-.859-1.445-.859-.5m15.845 6.75c-.007.963-.285 2.762-.616 4-.542 2.023-.246 2.25 2.93 2.25h3.534l-2.167-3.992c-2.317-4.269-3.659-5.092-3.681-2.258m6.24 3.824c.95.994 2.001 1.533 2.336 1.197.335-.335-.442-1.148-1.726-1.807-2.233-1.145-2.26-1.118-.61.61M81.5 190c-.34.55.11 1 1 1s1.34-.45 1-1c-.34-.55-.79-1-1-1-.21 0-.66.45-1 1m-5.31 6.952c7.89 5.045 85.939 6.694 97.038 2.049 1.505-.63-.768-.706-6.728-.226-12.854 1.035-60.403.572-71.567-.697-19.406-2.206-20.537-2.274-18.743-1.126m91.83 10.524c-.789.95-.865 1.524-.201 1.524 1.208 0 2.617-1.897 1.924-2.591-.252-.251-1.027.229-1.723 1.067M76 221l-4.5.7 5.5.076c3.025.042 7.525-.285 10-.725l4.5-.801-5.5.025c-3.025.014-7.525.34-10 .725m80.653 1.753c-.347.561 2.611 1.235 7.127 1.625 11.917 1.029 39.783 1.969 39.198 1.322-.454-.502-13.408-1.646-38.605-3.408-4.052-.283-7.383-.084-7.72.461M204 229.941c2.461 2.051 2.469 2.108.531 3.592-1.083.829-3.783 2.003-6 2.608-3.859 1.053-3.927 1.139-1.587 2.019 4.369 1.643 20.544 2.198 27.227.934 9.024-1.707 16.829-4.013 16.829-4.971 0-.987-21.484-4.778-32-5.646l-7.5-.619 2.5 2.083"/></svg>